<?xml version="1.0" encoding="utf-8"?>
<!-- Generator: Adobe Illustrator 16.2.0, SVG Export Plug-In . SVG Version: 6.00 Build 0)  -->
<!DOCTYPE svg PUBLIC "-//W3C//DTD SVG 1.1//EN" "http://www.w3.org/Graphics/SVG/1.1/DTD/svg11.dtd">
<svg version="1.1" id="Layer_1" xmlns="http://www.w3.org/2000/svg" xmlns:xlink="http://www.w3.org/1999/xlink" x="0px" y="0px"
	 width="60px" height="60px" viewBox="0 0 60 60" enable-background="new 0 0 60 60" xml:space="preserve">
<path fill="#326189" d="M44.943,0H15.057C6.822,0,0.123,6.699,0.123,14.934v30.132C0.123,53.301,6.822,60,15.057,60h29.886
	c8.234,0,14.935-6.699,14.935-14.934V14.934C59.877,6.699,53.178,0,44.943,0z M15.057,5.531h29.886c5.187,0,9.402,4.218,9.402,9.403
	v5.14H38.514c-2.318-1.651-5.15-2.627-8.208-2.627c-3.058,0-5.89,0.976-8.208,2.627H5.653v-5.14
	C5.653,9.749,9.871,5.531,15.057,5.531z M36.193,31.631c0,3.248-2.642,5.889-5.888,5.889c-3.247,0-5.889-2.641-5.889-5.889
	c0-3.246,2.642-5.888,5.889-5.888C33.552,25.743,36.193,28.385,36.193,31.631z M44.943,54.469H15.057
	c-5.186,0-9.403-4.217-9.403-9.402V25.605h11.815c-0.863,1.831-1.348,3.873-1.348,6.026c0,7.822,6.363,14.186,14.185,14.186
	c7.822,0,14.184-6.363,14.184-14.186c0-2.153-0.484-4.195-1.348-6.026h11.203v19.461C54.346,50.252,50.129,54.469,44.943,54.469z"/>
</svg>
