<?xml version="1.0" encoding="utf-8"?>
<!-- Generator: Adobe Illustrator 16.2.0, SVG Export Plug-In . SVG Version: 6.00 Build 0)  -->
<!DOCTYPE svg PUBLIC "-//W3C//DTD SVG 1.1//EN" "http://www.w3.org/Graphics/SVG/1.1/DTD/svg11.dtd">
<svg version="1.1" id="Layer_1" xmlns="http://www.w3.org/2000/svg" xmlns:xlink="http://www.w3.org/1999/xlink" x="0px" y="0px"
	 width="32px" height="12px" viewBox="0 0 32 12" enable-background="new 0 0 32 12" xml:space="preserve">
<path fill="#AD6C29" d="M31.962,5.812C31.938,5.75,31.9,5.694,31.855,5.648l-5.461-5.504c-0.188-0.19-0.516-0.186-0.699,0
	c-0.094,0.094-0.146,0.219-0.146,0.353c0,0.134,0.052,0.26,0.146,0.354l4.615,4.651H0.495C0.223,5.502,0,5.726,0,6.001
	S0.223,6.5,0.495,6.5h29.815l-4.615,4.65c-0.094,0.096-0.146,0.222-0.146,0.354c0.001,0.134,0.053,0.259,0.145,0.349
	c0.094,0.097,0.219,0.148,0.353,0.148c0.132,0,0.257-0.053,0.351-0.146l5.459-5.502c0.047-0.047,0.084-0.102,0.107-0.163
	C32.014,6.066,32.014,5.933,31.962,5.812z"/>
</svg>
