<?xml version="1.0" encoding="utf-8"?>
<!-- Generator: Adobe Illustrator 17.0.2, SVG Export Plug-In . SVG Version: 6.00 Build 0)  -->
<!DOCTYPE svg PUBLIC "-//W3C//DTD SVG 1.1//EN" "http://www.w3.org/Graphics/SVG/1.1/DTD/svg11.dtd">
<svg version="1.1" id="Layer_1" xmlns="http://www.w3.org/2000/svg" xmlns:xlink="http://www.w3.org/1999/xlink" x="0px" y="0px"
	 width="60px" height="60px" viewBox="0 0 60 60" enable-background="new 0 0 60 60" xml:space="preserve">
<g>
	<path fill="#005CFF" d="M24.204,28.233c0,0,5.669-0.421,5.669-7.069c0-6.648-4.638-9.892-10.513-9.892H8.546H8.229h-8.2v37.15h8.2
		h0.318H19.36c0,0,11.801,0.372,11.801-10.965C31.161,37.457,31.676,28.233,24.204,28.233z M8.546,17.875h9.422h1.391
		c0,0,2.628,0,2.628,3.865s-1.546,4.425-3.298,4.425H8.546V17.875z M18.861,41.82H8.546v-9.928H19.36c0,0,3.916-0.051,3.916,5.102
		C23.276,41.29,20.412,41.777,18.861,41.82z"/>
	<g>
		<path fill="#005CFF" d="M46.9,20.724c-14.286,0-14.273,14.273-14.273,14.273S31.646,49.199,46.9,49.199
			c0,0,12.712,0.726,12.712-9.879h-6.538c0,0,0.218,3.995-5.956,3.995c0,0-6.538,0.437-6.538-6.464h19.25
			C59.83,36.85,61.936,20.724,46.9,20.724z M52.711,31.892H40.507c0,0,0.799-5.727,6.538-5.727
			C52.784,26.165,52.711,31.892,52.711,31.892z"/>
		<rect x="38.908" y="13.46" fill="#005CFF" width="15.327" height="4.576"/>
	</g>
</g>
</svg>
